<?xml version="1.0" encoding="utf-8"?>
<!-- Generator: Adobe Illustrator 23.0.5, SVG Export Plug-In . SVG Version: 6.00 Build 0)  -->
<svg version="1.1" id="Layer_1" xmlns="http://www.w3.org/2000/svg" xmlns:xlink="http://www.w3.org/1999/xlink" x="0px" y="0px"
	 viewBox="0 0 206 50" style="enable-background:new 0 0 206 50;" xml:space="preserve">
<style type="text/css">
	.st0{fill:url(#SVGID_1_);}
	.st1{fill-rule:evenodd;clip-rule:evenodd;fill:#FF9A40;}
	.st2{fill:url(#SVGID_2_);}
	.st3{fill:url(#SVGID_3_);}
	.st4{fill:url(#SVGID_4_);}
	.st5{fill:url(#SVGID_5_);}
	.st6{fill:url(#SVGID_6_);}
	.st7{fill:url(#SVGID_7_);}
	.st8{fill:url(#SVGID_8_);}
	.st9{fill:url(#SVGID_9_);}
	.st10{fill:url(#SVGID_10_);}
	.st11{fill:url(#SVGID_11_);}
	.st12{fill:url(#SVGID_12_);}
	.st13{fill:url(#SVGID_13_);}
	.st14{fill:url(#SVGID_14_);}
	.st15{fill:url(#SVGID_15_);}
	.st16{fill:url(#SVGID_16_);}
	.st17{fill:url(#SVGID_17_);}
	.st18{fill:url(#SVGID_18_);}
	.st19{fill:url(#SVGID_19_);}
	.st20{fill:url(#SVGID_20_);}
	.st21{fill:url(#SVGID_21_);}
	.st22{fill:url(#SVGID_22_);}
	.st23{fill:url(#SVGID_23_);}
	.st24{fill:url(#SVGID_24_);}
	.st25{fill:url(#SVGID_25_);}
	.st26{fill:url(#SVGID_26_);}
	.st27{fill:url(#SVGID_27_);}
</style>
<radialGradient id="SVGID_1_" cx="217.5118" cy="32.8189" r="156.1692" gradientUnits="userSpaceOnUse">
	<stop  offset="0" style="stop-color:#00CDAC"/>
	<stop  offset="1" style="stop-color:#02AABD"/>
</radialGradient>
<path class="st0" d="M188.7,9.2c-9.3,0-16.1,6.5-16.1,15.6c0,9.1,6.8,15.6,16.1,15.6c7.2,0,13-3.9,15.2-10.2h-10.3
	c-1.1,1-2.9,1.8-4.9,1.8c-3.2,0-5.4-1.5-6.3-4.3h22C206.1,17.3,199.2,9.2,188.7,9.2z M182.5,22c0.9-2.7,3.1-4.3,6.3-4.3
	c3.3,0,5.5,1.7,6.3,4.3H182.5z"/>
<g>
	<path class="st1" d="M165.1,17.5c0,0-3.1-14.5,16.3-16.9c0,0,2.7,17.4-14.2,18.6c0,0,3-6.2,7.2-9.9C174.4,9.3,170,10.6,165.1,17.5z
		"/>
	<path class="st1" d="M163.1,16.5c0,0-7.8-0.4-7-9.5c0,0,9.6,1.2,8,8.5c0,0-1.6-3.2-4.5-4.1C159.6,11.4,163.1,15.5,163.1,16.5z"/>
</g>
<radialGradient id="SVGID_2_" cx="217.5118" cy="32.8189" r="156.1692" gradientUnits="userSpaceOnUse">
	<stop  offset="0" style="stop-color:#00CDAC"/>
	<stop  offset="1" style="stop-color:#02AABD"/>
</radialGradient>
<path class="st2" d="M17.4,9.2c-9.3,0-16.1,6.5-16.1,15.6c0,9.1,6.8,15.6,16.1,15.6c7.2,0,13-3.9,15.2-10.2H22.3
	c-1.1,1-2.9,1.8-4.9,1.8c-3.2,0-5.4-1.5-6.3-4.3h22C34.8,17.3,27.9,9.2,17.4,9.2z M11.2,22c0.9-2.7,3.1-4.3,6.3-4.3
	c3.3,0,5.5,1.7,6.3,4.3H11.2z"/>
<radialGradient id="SVGID_3_" cx="217.5118" cy="32.8189" r="156.1692" gradientUnits="userSpaceOnUse">
	<stop  offset="0" style="stop-color:#00CDAC"/>
	<stop  offset="1" style="stop-color:#02AABD"/>
</radialGradient>
<polygon class="st3" points="31.2,10.9 31.2,9.9 41.7,9.9 45,19.6 47.2,26.8 49.5,19.6 52.7,9.9 63.2,9.9 63.2,10.9 51.6,39.8 
	42.8,39.8 "/>
<radialGradient id="SVGID_4_" cx="217.5118" cy="32.8189" r="156.1692" gradientUnits="userSpaceOnUse">
	<stop  offset="0" style="stop-color:#00CDAC"/>
	<stop  offset="1" style="stop-color:#02AABD"/>
</radialGradient>
<path class="st4" d="M77.2,9.2c-9.3,0-16.1,6.5-16.1,15.6c0,9.1,6.8,15.6,16.1,15.6c7.2,0,13-3.9,15.2-10.2H82.1
	c-1.1,1-2.9,1.8-4.9,1.8c-3.2,0-5.4-1.5-6.3-4.3h22C94.6,17.3,87.7,9.2,77.2,9.2z M71,22c0.9-2.7,3.1-4.3,6.3-4.3
	c3.3,0,5.5,1.7,6.3,4.3H71z"/>
<radialGradient id="SVGID_5_" cx="217.5118" cy="31.8189" r="156.1692" gradientUnits="userSpaceOnUse">
	<stop  offset="0" style="stop-color:#00CDAC"/>
	<stop  offset="1" style="stop-color:#02AABD"/>
</radialGradient>
<path class="st5" d="M117.2,8.9l-0.3,2.5c-2.4-2-5.5-3.2-9.1-3.2c-8.2,0-14.2,6.3-14.2,14.5c0,8.4,6.2,14.2,14.2,14.2
	c3,0,5.7-0.8,7.9-2.2v0.7c0,3.6-2.8,5.3-6.4,5.3c-2.5,0-4.6-0.8-5.1-2.7h-9.7c0.8,7.6,6.9,11,15.1,11c9.3,0,16-5.1,16-15.1v-25
	H117.2z M109.6,28.8c-3.7,0-6.1-2.5-6.1-5.9c0-3.4,2.4-5.9,6.1-5.9c3.7,0,6.2,2.4,6.2,5.9C115.7,26.4,113.3,28.8,109.6,28.8z"/>
<radialGradient id="SVGID_6_" cx="217.5118" cy="31.8189" r="156.1692" gradientUnits="userSpaceOnUse">
	<stop  offset="0" style="stop-color:#00CDAC"/>
	<stop  offset="1" style="stop-color:#02AABD"/>
</radialGradient>
<path class="st6" d="M150,8.9l-0.3,2.5c-2.4-2-5.5-3.2-9.1-3.2c-8.2,0-14.2,6.3-14.2,14.5c0,8.4,6.2,14.2,14.2,14.2
	c3,0,5.7-0.8,7.9-2.2v0.7c0,3.6-2.8,5.3-6.4,5.3c-2.5,0-4.6-0.8-5.1-2.7h-9.7c0.8,7.6,6.9,11,15.1,11c9.3,0,16-5.1,16-15.1v-25H150z
	 M142.4,28.8c-3.7,0-6.1-2.5-6.1-5.9c0-3.4,2.4-5.9,6.1-5.9s6.2,2.4,6.2,5.9C148.5,26.4,146.1,28.8,142.4,28.8z"/>
<radialGradient id="SVGID_7_" cx="217.5118" cy="32.8189" r="156.1692" gradientTransform="matrix(1 0 0 0.8203 0 7.1588)" gradientUnits="userSpaceOnUse">
	<stop  offset="0" style="stop-color:#00CDAC"/>
	<stop  offset="1" style="stop-color:#02AABD"/>
</radialGradient>
<rect x="160.2" y="19.8" class="st7" width="10" height="20"/>
<g>
	<radialGradient id="SVGID_8_" cx="9.4488" cy="58.0079" r="65.0765" gradientUnits="userSpaceOnUse">
		<stop  offset="0" style="stop-color:#00CDAC"/>
		<stop  offset="1" style="stop-color:#02AABD"/>
	</radialGradient>
	<path class="st8" d="M3.4,46.5L5,46.2c0.1,0.5,0.5,0.7,1,0.7c0.4,0,0.6-0.1,0.6-0.4c0-0.1,0-0.2-0.1-0.3c-0.1-0.1-0.3-0.1-0.5-0.2
		c-0.9-0.2-1.5-0.4-1.8-0.8c-0.3-0.3-0.4-0.7-0.4-1.1c0-0.5,0.2-1,0.6-1.3c0.4-0.4,0.9-0.5,1.7-0.5c1.1,0,1.8,0.5,2.2,1.4l-1.4,0.4
		c-0.1-0.4-0.4-0.6-0.9-0.6c-0.4,0-0.5,0.1-0.5,0.4c0,0.1,0,0.2,0.1,0.2c0.1,0.1,0.2,0.1,0.5,0.2c0.6,0.1,1.1,0.3,1.4,0.4
		S7.8,45,8,45.3c0.2,0.3,0.3,0.6,0.3,1c0,0.6-0.2,1-0.7,1.4c-0.4,0.4-1,0.5-1.7,0.5C4.6,48.2,3.8,47.6,3.4,46.5z"/>
	<radialGradient id="SVGID_9_" cx="9.4488" cy="58.0079" r="65.0765" gradientUnits="userSpaceOnUse">
		<stop  offset="0" style="stop-color:#00CDAC"/>
		<stop  offset="1" style="stop-color:#02AABD"/>
	</radialGradient>
	<path class="st9" d="M10.1,42.4v5.7H8.4v-5.7H10.1z"/>
	<radialGradient id="SVGID_10_" cx="9.4488" cy="58.0079" r="65.0765" gradientUnits="userSpaceOnUse">
		<stop  offset="0" style="stop-color:#00CDAC"/>
		<stop  offset="1" style="stop-color:#02AABD"/>
	</radialGradient>
	<path class="st10" d="M12.2,46v2.1h-1.7v-5.7h2.3c0.6,0,1,0.1,1.3,0.2c0.3,0.1,0.5,0.4,0.7,0.6s0.3,0.6,0.3,1c0,0.5-0.2,1-0.5,1.3
		c-0.4,0.3-0.8,0.5-1.4,0.5H12.2z M12.1,44.8h0.6c0.5,0,0.7-0.2,0.7-0.6c0-0.4-0.2-0.5-0.7-0.5h-0.6V44.8z"/>
	<radialGradient id="SVGID_11_" cx="9.4488" cy="58.0079" r="65.0765" gradientUnits="userSpaceOnUse">
		<stop  offset="0" style="stop-color:#00CDAC"/>
		<stop  offset="1" style="stop-color:#02AABD"/>
	</radialGradient>
	<path class="st11" d="M17.5,48.2c-0.8,0-1.4-0.3-1.9-0.8c-0.5-0.5-0.7-1.2-0.7-2.1c0-0.9,0.2-1.6,0.7-2.1c0.5-0.6,1.1-0.8,1.9-0.8
		c0.7,0,1.4,0.3,1.8,0.8c0.5,0.5,0.7,1.2,0.7,2.1c0,0.9-0.2,1.6-0.7,2.2C18.9,47.9,18.3,48.2,17.5,48.2z M17.5,46.9
		c0.3,0,0.5-0.1,0.6-0.4c0.1-0.3,0.2-0.7,0.2-1.4c0-1-0.3-1.5-0.8-1.5c-0.5,0-0.8,0.6-0.8,1.7C16.7,46.4,17,46.9,17.5,46.9z"/>
	<radialGradient id="SVGID_12_" cx="9.4488" cy="58.0079" r="65.0765" gradientUnits="userSpaceOnUse">
		<stop  offset="0" style="stop-color:#00CDAC"/>
		<stop  offset="1" style="stop-color:#02AABD"/>
	</radialGradient>
	<path class="st12" d="M23.2,45.9l1.5,0.1c-0.1,0.7-0.3,1.2-0.7,1.6c-0.4,0.4-0.9,0.6-1.5,0.6c-0.7,0-1.3-0.3-1.8-0.8
		c-0.4-0.5-0.7-1.2-0.7-2.1c0-0.9,0.2-1.6,0.6-2.2c0.4-0.6,1-0.8,1.8-0.8c0.7,0,1.3,0.2,1.6,0.6c0.4,0.4,0.6,1,0.6,1.7l-1.5,0.1
		c0-0.4-0.1-0.7-0.2-0.8c-0.1-0.2-0.3-0.3-0.5-0.3c-0.5,0-0.8,0.6-0.8,1.7c0,0.6,0.1,1,0.2,1.3s0.3,0.3,0.6,0.3
		C22.9,46.9,23.2,46.6,23.2,45.9z"/>
	<radialGradient id="SVGID_13_" cx="9.4488" cy="58.0079" r="65.0765" gradientUnits="userSpaceOnUse">
		<stop  offset="0" style="stop-color:#00CDAC"/>
		<stop  offset="1" style="stop-color:#02AABD"/>
	</radialGradient>
	<path class="st13" d="M27.2,48.2c-0.8,0-1.4-0.3-1.9-0.8c-0.5-0.5-0.7-1.2-0.7-2.1c0-0.9,0.2-1.6,0.7-2.1c0.5-0.6,1.1-0.8,1.9-0.8
		c0.7,0,1.4,0.3,1.8,0.8c0.5,0.5,0.7,1.2,0.7,2.1c0,0.9-0.2,1.6-0.7,2.2C28.5,47.9,27.9,48.2,27.2,48.2z M27.1,46.9
		c0.3,0,0.5-0.1,0.6-0.4c0.1-0.3,0.2-0.7,0.2-1.4c0-1-0.3-1.5-0.8-1.5c-0.5,0-0.8,0.6-0.8,1.7C26.4,46.4,26.6,46.9,27.1,46.9z"/>
	<radialGradient id="SVGID_14_" cx="9.4488" cy="58.0079" r="65.0765" gradientUnits="userSpaceOnUse">
		<stop  offset="0" style="stop-color:#00CDAC"/>
		<stop  offset="1" style="stop-color:#02AABD"/>
	</radialGradient>
	<path class="st14" d="M32.1,43.8v4.4h-1.6v-4.4h-1.1v-1.4h3.8v1.4H32.1z"/>
	<radialGradient id="SVGID_15_" cx="9.4488" cy="58.0079" r="65.0765" gradientUnits="userSpaceOnUse">
		<stop  offset="0" style="stop-color:#00CDAC"/>
		<stop  offset="1" style="stop-color:#02AABD"/>
	</radialGradient>
	<path class="st15" d="M36.4,45.3v1.3h-2v-1.3H36.4z"/>
	<radialGradient id="SVGID_16_" cx="9.4488" cy="58.0079" r="65.0765" gradientUnits="userSpaceOnUse">
		<stop  offset="0" style="stop-color:#00CDAC"/>
		<stop  offset="1" style="stop-color:#02AABD"/>
	</radialGradient>
	<path class="st16" d="M40.9,45.9l1.5,0.1c-0.1,0.7-0.3,1.2-0.7,1.6c-0.4,0.4-0.9,0.6-1.5,0.6c-0.7,0-1.3-0.3-1.8-0.8
		c-0.4-0.5-0.7-1.2-0.7-2.1c0-0.9,0.2-1.6,0.6-2.2c0.4-0.6,1-0.8,1.8-0.8c0.7,0,1.3,0.2,1.6,0.6c0.4,0.4,0.6,1,0.6,1.7l-1.5,0.1
		c0-0.4-0.1-0.7-0.2-0.8c-0.1-0.2-0.3-0.3-0.5-0.3c-0.5,0-0.8,0.6-0.8,1.7c0,0.6,0.1,1,0.2,1.3s0.3,0.3,0.6,0.3
		C40.6,46.9,40.9,46.6,40.9,45.9z"/>
	<radialGradient id="SVGID_17_" cx="9.4488" cy="58.0079" r="65.0765" gradientUnits="userSpaceOnUse">
		<stop  offset="0" style="stop-color:#00CDAC"/>
		<stop  offset="1" style="stop-color:#02AABD"/>
	</radialGradient>
	<path class="st17" d="M45.4,48.1L45.1,47h-1.4l-0.3,1.1H42l1.7-5.7h1.7l1.7,5.7H45.4z M43.9,45.7h0.9l-0.4-1.7L43.9,45.7z"/>
	<radialGradient id="SVGID_18_" cx="9.4488" cy="58.0079" r="65.0765" gradientUnits="userSpaceOnUse">
		<stop  offset="0" style="stop-color:#00CDAC"/>
		<stop  offset="1" style="stop-color:#02AABD"/>
	</radialGradient>
	<path class="st18" d="M52.9,42.4v5.7h-1.5V44l-1,4.1h-1l-1-4.1v4.1h-1.2v-5.7h2.2l0.8,3l0.7-3H52.9z"/>
	<radialGradient id="SVGID_19_" cx="9.4488" cy="58.0079" r="65.0765" gradientUnits="userSpaceOnUse">
		<stop  offset="0" style="stop-color:#00CDAC"/>
		<stop  offset="1" style="stop-color:#02AABD"/>
	</radialGradient>
	<path class="st19" d="M56.3,48.1L56,47h-1.4l-0.3,1.1h-1.3l1.7-5.7h1.7l1.7,5.7H56.3z M54.9,45.7h0.9l-0.4-1.7L54.9,45.7z"/>
	<radialGradient id="SVGID_20_" cx="9.4488" cy="58.0079" r="65.0765" gradientUnits="userSpaceOnUse">
		<stop  offset="0" style="stop-color:#00CDAC"/>
		<stop  offset="1" style="stop-color:#02AABD"/>
	</radialGradient>
	<path class="st20" d="M62.8,48.1H61l-0.8-2.2h-0.5v2.2H58v-5.7h2.8c0.6,0,1.1,0.2,1.4,0.5s0.5,0.7,0.5,1.2c0,0.3-0.1,0.6-0.2,0.9
		s-0.4,0.5-0.8,0.7L62.8,48.1z M59.7,44.7h0.7c0.2,0,0.4,0,0.5-0.1c0.1-0.1,0.2-0.2,0.2-0.4c0-0.4-0.2-0.5-0.6-0.5h-0.8V44.7z"/>
	<radialGradient id="SVGID_21_" cx="9.4488" cy="58.0079" r="65.0765" gradientUnits="userSpaceOnUse">
		<stop  offset="0" style="stop-color:#00CDAC"/>
		<stop  offset="1" style="stop-color:#02AABD"/>
	</radialGradient>
	<path class="st21" d="M64.7,42.4v5.7h-1.7v-5.7H64.7z"/>
	<radialGradient id="SVGID_22_" cx="9.4488" cy="58.0079" r="65.0765" gradientUnits="userSpaceOnUse">
		<stop  offset="0" style="stop-color:#00CDAC"/>
		<stop  offset="1" style="stop-color:#02AABD"/>
	</radialGradient>
	<path class="st22" d="M69.8,48.1h-1.3l-1.5-2.5c-0.2-0.3-0.4-0.7-0.6-1.2c0.1,0.4,0.1,0.7,0.1,0.9v2.8h-1.3v-5.7h1.6l1.3,2.1
		c0.3,0.4,0.4,0.8,0.6,1.1c-0.1-0.5-0.1-1-0.1-1.5v-1.7h1.3V48.1z"/>
	<radialGradient id="SVGID_23_" cx="9.4488" cy="58.0079" r="65.0765" gradientUnits="userSpaceOnUse">
		<stop  offset="0" style="stop-color:#00CDAC"/>
		<stop  offset="1" style="stop-color:#02AABD"/>
	</radialGradient>
	<path class="st23" d="M74.2,46.8v1.4h-4v-5.7h4v1.3h-2.4v0.8h2v1.3h-2v0.9H74.2z"/>
	<radialGradient id="SVGID_24_" cx="9.4488" cy="58.0079" r="65.0765" gradientUnits="userSpaceOnUse">
		<stop  offset="0" style="stop-color:#00CDAC"/>
		<stop  offset="1" style="stop-color:#02AABD"/>
	</radialGradient>
	<path class="st24" d="M73.8,46.5l1.5-0.3c0.1,0.5,0.5,0.7,1,0.7c0.4,0,0.6-0.1,0.6-0.4c0-0.1,0-0.2-0.1-0.3
		c-0.1-0.1-0.3-0.1-0.5-0.2c-0.9-0.2-1.5-0.4-1.8-0.8s-0.4-0.7-0.4-1.1c0-0.5,0.2-1,0.6-1.3s0.9-0.5,1.7-0.5c1.1,0,1.8,0.5,2.2,1.4
		l-1.4,0.4c-0.1-0.4-0.4-0.6-0.9-0.6c-0.4,0-0.5,0.1-0.5,0.4c0,0.1,0,0.2,0.1,0.2c0.1,0.1,0.2,0.1,0.5,0.2c0.6,0.1,1.1,0.3,1.4,0.4
		s0.5,0.3,0.7,0.6c0.2,0.3,0.3,0.6,0.3,1c0,0.6-0.2,1-0.7,1.4s-1,0.5-1.7,0.5C75,48.2,74.2,47.6,73.8,46.5z"/>
	<radialGradient id="SVGID_25_" cx="9.4488" cy="58.0079" r="65.0765" gradientUnits="userSpaceOnUse">
		<stop  offset="0" style="stop-color:#00CDAC"/>
		<stop  offset="1" style="stop-color:#02AABD"/>
	</radialGradient>
	<path class="st25" d="M79.8,46.5l1.5-0.3c0.1,0.5,0.5,0.7,1,0.7c0.4,0,0.6-0.1,0.6-0.4c0-0.1,0-0.2-0.1-0.3
		c-0.1-0.1-0.3-0.1-0.5-0.2c-0.9-0.2-1.5-0.4-1.8-0.8S80,44.6,80,44.2c0-0.5,0.2-1,0.6-1.3s0.9-0.5,1.7-0.5c1.1,0,1.8,0.5,2.2,1.4
		l-1.4,0.4c-0.1-0.4-0.4-0.6-0.9-0.6c-0.4,0-0.5,0.1-0.5,0.4c0,0.1,0,0.2,0.1,0.2c0.1,0.1,0.2,0.1,0.5,0.2c0.6,0.1,1.1,0.3,1.4,0.4
		s0.5,0.3,0.7,0.6c0.2,0.3,0.3,0.6,0.3,1c0,0.6-0.2,1-0.7,1.4s-1,0.5-1.7,0.5C80.9,48.2,80.1,47.6,79.8,46.5z"/>
	<radialGradient id="SVGID_26_" cx="9.4488" cy="58.0079" r="65.0765" gradientUnits="userSpaceOnUse">
		<stop  offset="0" style="stop-color:#00CDAC"/>
		<stop  offset="1" style="stop-color:#02AABD"/>
	</radialGradient>
	<path class="st26" d="M89.1,42.4v3.8c0,0.7-0.2,1.2-0.6,1.5c-0.4,0.3-0.9,0.5-1.6,0.5c-0.7,0-1.2-0.2-1.6-0.5
		c-0.4-0.3-0.6-0.8-0.6-1.5v-3.9h1.7v3.7c0,0.3,0.1,0.5,0.2,0.6c0.1,0.1,0.3,0.2,0.5,0.2c0.2,0,0.4,0,0.5-0.1s0.2-0.2,0.2-0.3
		c0-0.1,0-0.3,0-0.7v-3.3H89.1z"/>
	<radialGradient id="SVGID_27_" cx="9.4488" cy="58.0079" r="65.0765" gradientUnits="userSpaceOnUse">
		<stop  offset="0" style="stop-color:#00CDAC"/>
		<stop  offset="1" style="stop-color:#02AABD"/>
	</radialGradient>
	<path class="st27" d="M94.3,48.1h-1.8l-0.8-2.2h-0.5v2.2h-1.7v-5.7h2.8c0.6,0,1.1,0.2,1.4,0.5s0.5,0.7,0.5,1.2
		c0,0.3-0.1,0.6-0.2,0.9s-0.4,0.5-0.8,0.7L94.3,48.1z M91.1,44.7h0.7c0.2,0,0.4,0,0.5-0.1c0.1-0.1,0.2-0.2,0.2-0.4
		c0-0.4-0.2-0.5-0.6-0.5h-0.8V44.7z"/>
</g>
</svg>
